STARTFONT 2.1
FONT -FontForge-KiwiSoda-Medium-R-Normal--16-160-72-72-P-74-ISO10646-1
SIZE 16 72 72
FONTBOUNDINGBOX 12 15 -1 -4
COMMENT "Generated by fontforge, http://fontforge.sourceforge.net"
COMMENT "jeti"
STARTPROPERTIES 39
FOUNDRY "FontForge"
FAMILY_NAME "KiwiSoda"
WEIGHT_NAME "Medium"
SLANT "R"
SETWIDTH_NAME "Normal"
ADD_STYLE_NAME ""
PIXEL_SIZE 16
POINT_SIZE 160
RESOLUTION_X 72
RESOLUTION_Y 72
SPACING "P"
AVERAGE_WIDTH 74
CHARSET_REGISTRY "ISO10646"
CHARSET_ENCODING "1"
FONTNAME_REGISTRY ""
CHARSET_COLLECTIONS "ISO10646-1"
FONT_NAME "KiwiSoda"
FACE_NAME "KiwiSoda"
COPYRIGHT "jeti"
FONT_VERSION "001.000"
FONT_ASCENT 12
FONT_DESCENT 4
UNDERLINE_POSITION -2
UNDERLINE_THICKNESS 1
X_HEIGHT 6
CAP_HEIGHT 9
RAW_ASCENT 750
RAW_DESCENT 250
NORM_SPACE 5
RELATIVE_WEIGHT 50
RELATIVE_SETWIDTH 50
SUPERSCRIPT_X 0
SUPERSCRIPT_Y 7
SUPERSCRIPT_SIZE 11
SUBSCRIPT_X 0
SUBSCRIPT_Y 2
SUBSCRIPT_SIZE 11
AVG_LOWERCASE_WIDTH 72
AVG_UPPERCASE_WIDTH 88
ENDPROPERTIES
CHARS 95
STARTCHAR space
ENCODING 32
SWIDTH 312 0
DWIDTH 5 0
BBX 1 1 0 0
BITMAP
00
ENDCHAR
STARTCHAR exclam
ENCODING 33
SWIDTH 250 0
DWIDTH 4 0
BBX 2 11 1 0
BITMAP
40
40
80
80
80
80
80
40
00
C0
C0
ENDCHAR
STARTCHAR quotedbl
ENCODING 34
SWIDTH 375 0
DWIDTH 6 0
BBX 5 3 0 7
BITMAP
58
D8
90
ENDCHAR
STARTCHAR numbersign
ENCODING 35
SWIDTH 625 0
DWIDTH 10 0
BBX 9 12 0 -2
BITMAP
1200
1200
2380
2E00
F200
2400
2580
FE00
4400
4800
8800
8000
ENDCHAR
STARTCHAR dollar
ENCODING 36
SWIDTH 437 0
DWIDTH 7 0
BBX 6 14 0 -3
BITMAP
10
10
78
94
90
78
14
24
A4
A8
70
20
20
20
ENDCHAR
STARTCHAR percent
ENCODING 37
SWIDTH 687 0
DWIDTH 11 0
BBX 10 10 0 0
BITMAP
0100
2200
5200
9400
9400
6980
0A40
1240
2240
2180
ENDCHAR
STARTCHAR ampersand
ENCODING 38
SWIDTH 562 0
DWIDTH 9 0
BBX 8 11 0 -1
BITMAP
18
24
24
18
30
51
89
8A
8C
74
03
ENDCHAR
STARTCHAR quotesingle
ENCODING 39
SWIDTH 187 0
DWIDTH 3 0
BBX 2 3 0 7
BITMAP
C0
C0
80
ENDCHAR
STARTCHAR parenleft
ENCODING 40
SWIDTH 312 0
DWIDTH 5 0
BBX 4 13 0 -3
BITMAP
10
20
40
40
80
80
80
80
80
80
40
40
20
ENDCHAR
STARTCHAR parenright
ENCODING 41
SWIDTH 312 0
DWIDTH 5 0
BBX 4 13 0 -3
BITMAP
80
40
20
20
10
10
10
10
10
10
20
20
40
ENDCHAR
STARTCHAR asterisk
ENCODING 42
SWIDTH 437 0
DWIDTH 7 0
BBX 6 5 0 4
BITMAP
24
3C
F8
38
6C
ENDCHAR
STARTCHAR plus
ENCODING 43
SWIDTH 500 0
DWIDTH 8 0
BBX 7 6 0 1
BITMAP
10
10
1E
F0
20
20
ENDCHAR
STARTCHAR comma
ENCODING 44
SWIDTH 187 0
DWIDTH 3 0
BBX 2 4 0 -2
BITMAP
C0
C0
80
80
ENDCHAR
STARTCHAR hyphen
ENCODING 45
SWIDTH 375 0
DWIDTH 6 0
BBX 5 2 0 2
BITMAP
38
C0
ENDCHAR
STARTCHAR period
ENCODING 46
SWIDTH 187 0
DWIDTH 3 0
BBX 2 2 0 0
BITMAP
C0
C0
ENDCHAR
STARTCHAR slash
ENCODING 47
SWIDTH 375 0
DWIDTH 6 0
BBX 5 11 0 -1
BITMAP
08
10
10
20
20
40
40
40
40
80
80
ENDCHAR
STARTCHAR zero
ENCODING 48
SWIDTH 437 0
DWIDTH 7 0
BBX 6 10 0 0
BITMAP
38
44
44
84
84
84
84
84
48
30
ENDCHAR
STARTCHAR one
ENCODING 49
SWIDTH 312 0
DWIDTH 5 0
BBX 4 11 0 -1
BITMAP
10
70
A0
20
20
40
40
40
40
20
20
ENDCHAR
STARTCHAR two
ENCODING 50
SWIDTH 437 0
DWIDTH 7 0
BBX 6 11 0 -1
BITMAP
38
44
84
84
08
08
30
40
80
84
F8
ENDCHAR
STARTCHAR three
ENCODING 51
SWIDTH 562 0
DWIDTH 9 0
BBX 8 11 0 -1
BITMAP
9C
64
08
16
39
61
02
02
04
08
70
ENDCHAR
STARTCHAR four
ENCODING 52
SWIDTH 500 0
DWIDTH 8 0
BBX 7 11 0 -1
BITMAP
04
24
28
48
48
4E
B8
C8
08
04
04
ENDCHAR
STARTCHAR five
ENCODING 53
SWIDTH 500 0
DWIDTH 8 0
BBX 7 10 0 0
BITMAP
06
78
80
80
9C
A2
C2
84
08
30
ENDCHAR
STARTCHAR six
ENCODING 54
SWIDTH 500 0
DWIDTH 8 0
BBX 7 10 0 0
BITMAP
0C
10
20
40
5C
A2
C2
82
84
78
ENDCHAR
STARTCHAR seven
ENCODING 55
SWIDTH 500 0
DWIDTH 8 0
BBX 7 11 0 -1
BITMAP
06
CA
32
04
08
08
10
10
20
20
20
ENDCHAR
STARTCHAR eight
ENCODING 56
SWIDTH 500 0
DWIDTH 8 0
BBX 7 10 0 0
BITMAP
38
44
44
48
38
44
82
82
84
78
ENDCHAR
STARTCHAR nine
ENCODING 57
SWIDTH 437 0
DWIDTH 7 0
BBX 6 11 0 -1
BITMAP
38
44
84
84
78
08
10
20
20
20
10
ENDCHAR
STARTCHAR colon
ENCODING 58
SWIDTH 187 0
DWIDTH 3 0
BBX 2 6 0 0
BITMAP
C0
C0
00
00
C0
C0
ENDCHAR
STARTCHAR semicolon
ENCODING 59
SWIDTH 187 0
DWIDTH 3 0
BBX 2 8 0 -2
BITMAP
C0
C0
00
00
40
C0
40
80
ENDCHAR
STARTCHAR less
ENCODING 60
SWIDTH 500 0
DWIDTH 8 0
BBX 7 6 0 2
BITMAP
06
08
30
C0
30
0C
ENDCHAR
STARTCHAR equal
ENCODING 61
SWIDTH 500 0
DWIDTH 8 0
BBX 7 5 0 2
BITMAP
0E
F0
06
38
C0
ENDCHAR
STARTCHAR greater
ENCODING 62
SWIDTH 500 0
DWIDTH 8 0
BBX 7 6 0 2
BITMAP
C0
30
0C
0E
30
C0
ENDCHAR
STARTCHAR question
ENCODING 63
SWIDTH 500 0
DWIDTH 8 0
BBX 7 11 0 -1
BITMAP
3C
42
82
0C
30
40
40
30
00
30
20
ENDCHAR
STARTCHAR at
ENCODING 64
SWIDTH 750 0
DWIDTH 12 0
BBX 11 12 0 -2
BITMAP
0F00
1080
2040
4020
4E20
9220
A220
A640
9B80
8000
4400
3800
ENDCHAR
STARTCHAR A
ENCODING 65
SWIDTH 687 0
DWIDTH 11 0
BBX 10 11 0 -1
BITMAP
3800
4400
4200
42C0
4F00
F100
4080
4080
8040
8040
8000
ENDCHAR
STARTCHAR B
ENCODING 66
SWIDTH 562 0
DWIDTH 9 0
BBX 8 11 0 -1
BITMAP
98
64
44
48
48
7E
41
81
81
82
7C
ENDCHAR
STARTCHAR C
ENCODING 67
SWIDTH 562 0
DWIDTH 9 0
BBX 8 11 0 -1
BITMAP
38
44
44
80
80
80
81
41
41
22
1C
ENDCHAR
STARTCHAR D
ENCODING 68
SWIDTH 500 0
DWIDTH 8 0
BBX 7 10 0 0
BITMAP
98
E4
42
42
42
42
82
82
84
78
ENDCHAR
STARTCHAR E
ENCODING 69
SWIDTH 562 0
DWIDTH 9 0
BBX 8 12 0 -1
BITMAP
80
87
78
40
40
FC
40
40
40
F8
84
02
ENDCHAR
STARTCHAR F
ENCODING 70
SWIDTH 562 0
DWIDTH 9 0
BBX 8 12 0 -1
BITMAP
03
DC
60
40
40
78
E6
20
20
20
40
40
ENDCHAR
STARTCHAR G
ENCODING 71
SWIDTH 562 0
DWIDTH 9 0
BBX 8 15 0 -4
BITMAP
0E
11
21
40
40
80
8E
81
81
81
47
39
01
09
06
ENDCHAR
STARTCHAR H
ENCODING 72
SWIDTH 562 0
DWIDTH 9 0
BBX 8 14 0 -3
BITMAP
80
84
84
44
47
7C
C4
44
44
44
44
84
84
02
ENDCHAR
STARTCHAR I
ENCODING 73
SWIDTH 250 0
DWIDTH 4 0
BBX 2 11 0 -1
BITMAP
80
80
40
40
40
40
80
80
80
80
40
ENDCHAR
STARTCHAR J
ENCODING 74
SWIDTH 625 0
DWIDTH 10 0
BBX 9 11 0 -1
BITMAP
0F00
1880
2800
C800
0400
0200
0200
4200
8200
8400
7800
ENDCHAR
STARTCHAR K
ENCODING 75
SWIDTH 562 0
DWIDTH 9 0
BBX 8 11 0 0
BITMAP
80
84
84
48
50
60
60
50
48
49
46
ENDCHAR
STARTCHAR L
ENCODING 76
SWIDTH 562 0
DWIDTH 9 0
BBX 8 11 0 -1
BITMAP
80
40
40
20
20
20
40
40
81
F1
0E
ENDCHAR
STARTCHAR M
ENCODING 77
SWIDTH 562 0
DWIDTH 9 0
BBX 8 14 0 -3
BITMAP
04
C4
6A
6A
6A
52
92
91
91
81
81
41
01
02
ENDCHAR
STARTCHAR N
ENCODING 78
SWIDTH 500 0
DWIDTH 8 0
BBX 7 12 0 -1
BITMAP
04
02
42
A2
A2
A2
92
94
94
88
88
40
ENDCHAR
STARTCHAR O
ENCODING 79
SWIDTH 562 0
DWIDTH 9 0
BBX 8 10 0 -1
BITMAP
38
44
42
82
81
81
81
81
42
3C
ENDCHAR
STARTCHAR P
ENCODING 80
SWIDTH 562 0
DWIDTH 9 0
BBX 8 12 0 -2
BITMAP
8E
91
61
41
41
7E
40
40
40
80
80
80
ENDCHAR
STARTCHAR Q
ENCODING 81
SWIDTH 562 0
DWIDTH 9 0
BBX 8 12 0 -2
BITMAP
1C
22
41
81
81
91
92
8A
44
3C
04
03
ENDCHAR
STARTCHAR R
ENCODING 82
SWIDTH 625 0
DWIDTH 10 0
BBX 9 11 0 -1
BITMAP
8C00
B200
4200
4200
4C00
7000
5000
5080
4880
8700
8000
ENDCHAR
STARTCHAR S
ENCODING 83
SWIDTH 562 0
DWIDTH 9 0
BBX 8 11 0 -1
BITMAP
1E
61
80
80
7C
02
01
01
42
44
38
ENDCHAR
STARTCHAR T
ENCODING 84
SWIDTH 625 0
DWIDTH 10 0
BBX 9 12 0 -1
BITMAP
0700
3880
D080
1000
1000
0800
0800
0800
0800
0800
0800
3000
ENDCHAR
STARTCHAR U
ENCODING 85
SWIDTH 500 0
DWIDTH 8 0
BBX 7 10 0 0
BITMAP
40
80
84
82
82
82
82
44
44
38
ENDCHAR
STARTCHAR V
ENCODING 86
SWIDTH 562 0
DWIDTH 9 0
BBX 8 11 0 -1
BITMAP
80
81
41
42
24
24
28
18
18
10
10
ENDCHAR
STARTCHAR W
ENCODING 87
SWIDTH 562 0
DWIDTH 9 0
BBX 8 11 0 -1
BITMAP
40
80
82
81
81
89
89
95
56
66
44
ENDCHAR
STARTCHAR X
ENCODING 88
SWIDTH 500 0
DWIDTH 8 0
BBX 7 11 0 -1
BITMAP
84
82
42
22
14
08
08
14
24
42
02
ENDCHAR
STARTCHAR Y
ENCODING 89
SWIDTH 562 0
DWIDTH 9 0
BBX 8 13 0 -2
BITMAP
02
81
81
42
44
28
10
10
08
08
08
08
10
ENDCHAR
STARTCHAR Z
ENCODING 90
SWIDTH 625 0
DWIDTH 10 0
BBX 9 12 0 -1
BITMAP
0700
D900
2100
0100
0200
0200
0400
1800
2000
4000
BC00
C380
ENDCHAR
STARTCHAR bracketleft
ENCODING 91
SWIDTH 312 0
DWIDTH 5 0
BBX 4 13 0 -3
BITMAP
30
C0
80
80
80
80
80
80
80
80
80
B0
C0
ENDCHAR
STARTCHAR backslash
ENCODING 92
SWIDTH 375 0
DWIDTH 6 0
BBX 5 12 0 -2
BITMAP
80
80
80
40
40
40
40
20
20
20
10
08
ENDCHAR
STARTCHAR bracketright
ENCODING 93
SWIDTH 375 0
DWIDTH 6 0
BBX 5 12 0 -2
BITMAP
18
68
08
08
08
10
10
10
10
10
D0
30
ENDCHAR
STARTCHAR asciicircum
ENCODING 94
SWIDTH 437 0
DWIDTH 7 0
BBX 6 4 0 6
BITMAP
10
28
44
84
ENDCHAR
STARTCHAR underscore
ENCODING 95
SWIDTH 625 0
DWIDTH 10 0
BBX 9 2 0 -2
BITMAP
3C00
C380
ENDCHAR
STARTCHAR grave
ENCODING 96
SWIDTH 250 0
DWIDTH 4 0
BBX 3 2 0 8
BITMAP
C0
20
ENDCHAR
STARTCHAR a
ENCODING 97
SWIDTH 500 0
DWIDTH 8 0
BBX 7 9 0 -1
BITMAP
38
44
42
02
7A
84
84
7C
06
ENDCHAR
STARTCHAR b
ENCODING 98
SWIDTH 500 0
DWIDTH 8 0
BBX 7 10 0 0
BITMAP
80
80
40
40
40
5C
62
42
82
FC
ENDCHAR
STARTCHAR c
ENCODING 99
SWIDTH 500 0
DWIDTH 8 0
BBX 7 7 0 0
BITMAP
38
44
84
80
80
42
3C
ENDCHAR
STARTCHAR d
ENCODING 100
SWIDTH 500 0
DWIDTH 8 0
BBX 7 11 0 0
BITMAP
04
08
08
08
08
78
88
88
84
8A
72
ENDCHAR
STARTCHAR e
ENCODING 101
SWIDTH 500 0
DWIDTH 8 0
BBX 7 7 0 0
BITMAP
38
44
84
F8
80
42
3C
ENDCHAR
STARTCHAR f
ENCODING 102
SWIDTH 437 0
DWIDTH 7 0
BBX 7 12 -1 -2
BITMAP
38
44
44
40
20
7C
92
10
10
10
10
20
ENDCHAR
STARTCHAR g
ENCODING 103
SWIDTH 562 0
DWIDTH 9 0
BBX 8 13 0 -4
BITMAP
03
05
1C
22
42
84
84
78
26
41
41
22
1C
ENDCHAR
STARTCHAR h
ENCODING 104
SWIDTH 437 0
DWIDTH 7 0
BBX 6 11 0 -1
BITMAP
80
80
80
80
58
64
44
44
84
84
80
ENDCHAR
STARTCHAR i
ENCODING 105
SWIDTH 250 0
DWIDTH 4 0
BBX 2 11 0 -1
BITMAP
40
C0
80
00
80
80
80
80
80
80
40
ENDCHAR
STARTCHAR j
ENCODING 106
SWIDTH 312 0
DWIDTH 5 0
BBX 4 13 0 -3
BITMAP
20
60
40
00
40
40
20
10
10
10
10
20
C0
ENDCHAR
STARTCHAR k
ENCODING 107
SWIDTH 500 0
DWIDTH 8 0
BBX 7 11 0 -1
BITMAP
80
80
40
48
48
50
60
98
84
82
82
ENDCHAR
STARTCHAR l
ENCODING 108
SWIDTH 250 0
DWIDTH 4 0
BBX 2 11 0 -1
BITMAP
80
80
40
40
40
80
80
80
80
40
40
ENDCHAR
STARTCHAR m
ENCODING 109
SWIDTH 625 0
DWIDTH 10 0
BBX 9 8 0 -1
BITMAP
6600
5500
4880
4880
9080
9100
9100
1000
ENDCHAR
STARTCHAR n
ENCODING 110
SWIDTH 500 0
DWIDTH 8 0
BBX 7 8 0 -1
BITMAP
58
64
42
42
42
82
82
04
ENDCHAR
STARTCHAR o
ENCODING 111
SWIDTH 437 0
DWIDTH 7 0
BBX 6 7 0 0
BITMAP
38
44
84
84
84
84
78
ENDCHAR
STARTCHAR p
ENCODING 112
SWIDTH 437 0
DWIDTH 7 0
BBX 6 9 0 -2
BITMAP
B8
44
44
44
78
40
40
80
80
ENDCHAR
STARTCHAR q
ENCODING 113
SWIDTH 437 0
DWIDTH 7 0
BBX 6 11 0 -4
BITMAP
38
44
44
84
88
78
08
10
10
10
0C
ENDCHAR
STARTCHAR r
ENCODING 114
SWIDTH 375 0
DWIDTH 6 0
BBX 5 7 0 0
BITMAP
B0
48
40
40
40
80
80
ENDCHAR
STARTCHAR s
ENCODING 115
SWIDTH 437 0
DWIDTH 7 0
BBX 6 8 0 0
BITMAP
38
44
80
40
38
04
84
78
ENDCHAR
STARTCHAR t
ENCODING 116
SWIDTH 375 0
DWIDTH 6 0
BBX 5 11 0 -1
BITMAP
10
20
20
E0
58
40
40
40
40
40
20
ENDCHAR
STARTCHAR u
ENCODING 117
SWIDTH 437 0
DWIDTH 7 0
BBX 6 7 0 0
BITMAP
08
84
84
84
84
88
70
ENDCHAR
STARTCHAR v
ENCODING 118
SWIDTH 437 0
DWIDTH 7 0
BBX 6 9 0 -1
BITMAP
08
04
84
84
84
48
50
20
20
ENDCHAR
STARTCHAR w
ENCODING 119
SWIDTH 562 0
DWIDTH 9 0
BBX 8 7 0 0
BITMAP
02
41
81
91
9A
94
64
ENDCHAR
STARTCHAR x
ENCODING 120
SWIDTH 500 0
DWIDTH 8 0
BBX 7 8 0 -1
BITMAP
C2
24
18
38
48
84
84
04
ENDCHAR
STARTCHAR y
ENCODING 121
SWIDTH 437 0
DWIDTH 7 0
BBX 6 10 0 -4
BITMAP
88
84
84
84
44
38
08
10
20
C0
ENDCHAR
STARTCHAR z
ENCODING 122
SWIDTH 562 0
DWIDTH 9 0
BBX 8 8 0 -1
BITMAP
3C
C4
08
08
10
21
4E
70
ENDCHAR
STARTCHAR braceleft
ENCODING 123
SWIDTH 437 0
DWIDTH 7 0
BBX 6 12 0 -2
BITMAP
1C
20
20
10
10
20
C0
20
10
10
10
0C
ENDCHAR
STARTCHAR bar
ENCODING 124
SWIDTH 187 0
DWIDTH 3 0
BBX 2 12 0 -2
BITMAP
80
80
80
80
80
80
80
40
40
40
40
40
ENDCHAR
STARTCHAR braceright
ENCODING 125
SWIDTH 375 0
DWIDTH 6 0
BBX 5 12 0 -2
BITMAP
C0
20
20
20
20
10
08
10
20
20
20
C0
ENDCHAR
STARTCHAR asciitilde
ENCODING 126
SWIDTH 500 0
DWIDTH 8 0
BBX 7 3 0 3
BITMAP
62
92
0C
ENDCHAR
ENDFONT
